<svg width="24" height="24" viewBox="0 0 24 24" fill="none" xmlns="http://www.w3.org/2000/svg">
<path fill-rule="evenodd" clip-rule="evenodd" d="M4.5 3C4.10217 3 3.72064 3.15804 3.43934 3.43934C3.15804 3.72064 3 4.10217 3 4.5V10C3 18.4049 10.1471 21.18 11.5303 21.6392C11.8348 21.7429 12.1652 21.7429 12.4697 21.6392C13.8529 21.18 21 18.4049 21 10V4.5C21 4.10218 20.842 3.72065 20.5607 3.43934C20.2794 3.15804 19.8978 3 19.5 3H4.5ZM4.5 4.5L19.5 4.5V10C19.5 17.3302 13.3074 19.7801 12 20.2147C10.6926 19.7801 4.5 17.3302 4.5 10L4.5 4.5Z" fill="black"/>
<path d="M15.3374 9.12114H13.765C13.6752 8.25995 13.2078 7.46027 12.5237 6.96816H15.3374C15.5077 6.96816 15.647 6.82975 15.647 6.66059C15.647 6.49142 15.5077 6.35302 15.3374 6.35302H8.78756C8.61731 6.35302 8.47802 6.49142 8.47802 6.66059C8.47802 6.82975 8.61731 6.96816 8.78756 6.96816H10.6634C11.9387 6.96816 12.9911 7.92162 13.1428 9.12114H8.78756C8.61731 9.12114 8.47802 9.25955 8.47802 9.42871C8.47802 9.59787 8.61731 9.73628 8.78756 9.73628H13.1428C12.988 10.9819 11.9232 11.9169 10.6634 11.92H8.79065C8.61731 11.9231 8.47802 12.0646 8.48111 12.2368C8.48111 12.3199 8.51826 12.3998 8.57707 12.4583L13.2604 16.8596C13.3842 16.9765 13.5793 16.9703 13.6969 16.8473C13.8145 16.7212 13.8083 16.5274 13.6845 16.4075L9.56451 12.5352H10.6603C12.2761 12.5352 13.6102 11.3049 13.765 9.73628H15.3374C15.5077 9.73628 15.647 9.59787 15.647 9.42871C15.647 9.25955 15.5077 9.12114 15.3374 9.12114Z" fill="black"/>
<path fill-rule="evenodd" clip-rule="evenodd" d="M8.79065 11.92H10.6634C11.8011 11.9172 12.7797 11.1545 13.0728 10.0893C13.1042 9.97492 13.1278 9.85706 13.1428 9.73628H8.78756C8.61731 9.73628 8.47802 9.59787 8.47802 9.42871C8.47802 9.25955 8.61731 9.12114 8.78756 9.12114H13.1428C13.1276 9.00075 13.1033 8.88284 13.0706 8.76812C12.7776 7.73984 11.8107 6.96816 10.6634 6.96816H8.78756C8.61731 6.96816 8.47802 6.82975 8.47802 6.66059C8.47802 6.49142 8.61731 6.35302 8.78756 6.35302H15.3374C15.5077 6.35302 15.647 6.49142 15.647 6.66059C15.647 6.82975 15.5077 6.96816 15.3374 6.96816H12.5237C12.6691 7.07273 12.8047 7.19119 12.9289 7.32117C13.3894 7.8029 13.6943 8.44295 13.765 9.12114H15.3374C15.5077 9.12114 15.647 9.25955 15.647 9.42871C15.647 9.59787 15.5077 9.73628 15.3374 9.73628H13.765C13.6102 11.3049 12.2761 12.5352 10.6603 12.5352H9.56451L13.6845 16.4075C13.8083 16.5274 13.8145 16.7212 13.6969 16.8473C13.5793 16.9703 13.3842 16.9765 13.2604 16.8596L8.57707 12.4583C8.51826 12.3998 8.48111 12.3199 8.48111 12.2368C8.47802 12.0646 8.61731 11.9231 8.79065 11.92ZM8.1281 12.2401C8.12314 11.8694 8.42207 11.5735 8.78439 11.5671L8.79065 11.5669L10.6629 11.567C11.6077 11.5645 12.4228 10.953 12.7042 10.0893H8.78756C8.42447 10.0893 8.125 9.79496 8.125 9.42871C8.125 9.06246 8.42447 8.76812 8.78756 8.76812H12.7009C12.419 7.93823 11.6149 7.32117 10.6634 7.32117H8.78756C8.42447 7.32117 8.125 7.02684 8.125 6.66059C8.125 6.29433 8.42447 6 8.78756 6H15.3374C15.7005 6 16 6.29433 16 6.66059C16 7.02684 15.7005 7.32117 15.3374 7.32117H13.3959C13.726 7.73988 13.9601 8.23819 14.0676 8.76812H15.3374C15.7005 8.76812 16 9.06246 16 9.42871C16 9.79496 15.7005 10.0893 15.3374 10.0893H14.0697C13.7597 11.683 12.3475 12.8882 10.6603 12.8882H10.4556L13.9302 16.1539C14.1902 16.4058 14.2057 16.8194 13.955 17.0881L13.9521 17.0913C13.7021 17.3527 13.2854 17.368 13.0187 17.1168M13.0187 17.1168L8.32815 12.7088C8.21131 12.5927 8.12905 12.4265 8.1281 12.2401" fill="black"/>
</svg>
